<svg width="145" height="37" viewBox="0 0 145 37" fill="none" xmlns="http://www.w3.org/2000/svg">
<path d="M49.144 12.1588V28.8307H46V6.76172H51.081L55.4958 23.0206L59.9729 6.76172H64.9579V28.8316H61.3388V12.1588L56.8289 28.8307H53.6548L49.144 12.1588ZM75.0422 29.1477C70.2125 29.1477 67.4833 26.4487 67.4833 20.8927C67.4833 16.0657 69.6743 12.5389 74.2765 12.5389C78.0573 12.5389 80.5023 14.6367 80.5023 20.1937V22.1928H71.3893C71.5473 24.8617 72.5935 26.1646 75.3583 26.1646C77.1994 26.1646 79.1692 25.4656 80.3433 24.6698V27.7516C79.2323 28.5136 77.4543 29.1477 75.0422 29.1477ZM71.3893 19.3979H76.6585V19.0808C76.6585 17.0817 76.0874 15.5239 74.2135 15.5239C72.4062 15.5248 71.4852 16.8579 71.3893 19.3979ZM83.7632 12.8587V9.36479H87.5413V12.8587H91.5103V15.8418H87.5413V24.0668C87.5413 25.2418 88.2704 26.1646 89.8602 26.1646C91.1302 26.1646 91.8264 25.6566 91.8264 25.6566V28.7348C91.8264 28.7348 90.7803 29.1468 88.9392 29.1468C85.4453 29.1468 83.7623 27.0189 83.7623 24.0357V15.84H81.7595V12.8569H83.7632V12.8587ZM100.172 29.1477C95.3422 29.1477 92.6131 26.4487 92.6131 20.8927C92.6131 16.0657 94.8041 12.5389 99.4063 12.5389C103.187 12.5389 105.632 14.6367 105.632 20.1937V22.1928H96.5191C96.6771 24.8617 97.7233 26.1646 100.488 26.1646C102.329 26.1646 104.299 25.4656 105.473 24.6698V27.7516C104.362 28.5136 102.584 29.1477 100.172 29.1477ZM96.52 19.3979H101.789V19.0808C101.789 17.0817 101.218 15.5239 99.3442 15.5239C97.536 15.5248 96.615 16.8579 96.52 19.3979ZM116.895 12.8587H120.676V28.8307H116.991L116.895 27.4976H116.704C115.942 28.2596 114.609 29.0847 112.355 29.0847C109.273 29.0847 108.003 27.6886 108.003 24.5117V12.8587H111.781V24.1326C111.781 25.3368 112.385 25.9078 113.721 25.9078C115.087 25.9078 116.196 25.1787 116.895 24.3208V12.8587ZM127.619 28.8307H123.838V12.8587H127.523L127.619 14.1917H127.807C128.569 13.4297 129.585 12.6047 131.842 12.6047C133.904 12.6047 135.174 13.2379 135.778 14.6367C136.669 13.5549 138.13 12.6047 140.575 12.6047C143.653 12.6047 144.765 14.0008 144.765 17.1776V28.8307H140.987V17.5568C140.987 16.3489 140.542 15.7788 139.209 15.7788C137.843 15.7788 136.89 16.5107 136.19 17.3659V28.8307H132.412V17.5568C132.412 16.3489 131.967 15.7788 130.634 15.7788C129.268 15.7788 128.315 16.5107 127.618 17.3659V28.8307H127.619Z" fill="white"/>
<path d="M11.1102 20.9719L11.0152 20.9234L10.9658 20.8979L10.9147 20.8714C10.678 20.748 10.5839 20.4566 10.7073 20.219C10.8297 19.9824 11.1212 19.8892 11.3596 20.0116C11.3852 20.0262 11.409 20.0408 11.4318 20.0582L11.5268 20.1322L11.568 20.1633L11.6073 20.1943C11.8092 20.3515 11.8457 20.6429 11.6886 20.8449C11.5497 21.023 11.3048 21.0733 11.1102 20.9719ZM9.9608 19.6534C10.2459 19.4122 10.2815 18.9864 10.0412 18.7005L10.0101 18.6639L9.97725 18.6255L9.86578 18.4931C9.8402 18.462 9.81005 18.4346 9.77807 18.4072C9.4793 18.1614 9.0389 18.2034 8.79312 18.5022C8.54735 18.801 8.59029 19.2414 8.88906 19.4871L8.93383 19.5246L8.97677 19.5602L9.09647 19.6589C9.34407 19.8627 9.70863 19.8672 9.9608 19.6534ZM7.28464 17.5748L7.31662 17.6232L7.34677 17.6698L7.41164 17.7667C7.64463 18.1157 8.10969 18.2345 8.48613 18.0307C8.88632 17.8142 9.03434 17.3153 8.81779 16.9161L8.79495 16.874L8.77211 16.8302L8.70998 16.7169C8.6981 16.6949 8.68622 16.6739 8.6716 16.6529C8.41669 16.2701 7.89955 16.1668 7.51672 16.4208C7.13297 16.6748 7.02973 17.192 7.28464 17.5748ZM7.9562 14.8648L7.94158 14.8173L7.91873 14.7461C7.91782 14.7433 7.91782 14.7415 7.91691 14.7388C7.75884 14.2509 7.23439 13.985 6.7474 14.143C6.2595 14.302 5.9927 14.8256 6.15168 15.3125L6.16904 15.3683L6.1864 15.4213L6.20376 15.4743C6.36091 15.9549 6.87531 16.2226 7.36048 16.0718C7.8493 15.9211 8.12248 15.4012 7.97173 14.9114L7.9562 14.8648ZM7.50941 12.7214L7.50393 12.6711L7.4957 12.5953C7.49479 12.5934 7.49479 12.5907 7.49479 12.588C7.42718 12.069 6.95115 11.7026 6.43127 11.7711C5.9123 11.8387 5.54591 12.3148 5.61353 12.8337L5.62084 12.8913L5.62814 12.947L5.63637 13.0028C5.70307 13.5163 6.16904 13.8808 6.68436 13.8205C7.20424 13.7593 7.57611 13.2897 7.5158 12.7698L7.50941 12.7214ZM6.42761 11.4742C6.96029 11.5062 7.41804 11.0987 7.4491 10.5651L7.45185 10.5167L7.45459 10.4664L7.45916 10.3897C7.46007 10.3869 7.45915 10.3842 7.46007 10.3814C7.48382 9.84693 7.06993 9.39466 6.53634 9.36999C6.00093 9.34715 5.54866 9.76013 5.5249 10.2946L5.52216 10.3522L5.51942 10.4079L5.51668 10.4655C5.49383 10.9936 5.89859 11.444 6.42761 11.4742ZM6.65238 9.11781C7.16221 9.26583 7.69488 8.97254 7.84199 8.46271L7.86117 8.3951L7.87579 8.34758L7.8895 8.29916C8.03934 7.79024 7.74788 7.26031 7.23805 7.11046C6.73004 6.95971 6.19554 7.25117 6.0457 7.76009L6.02925 7.81491L6.01372 7.86973L5.99818 7.92364L5.99636 7.92821C5.84925 8.43712 6.14346 8.9698 6.65238 9.11781ZM7.33581 6.84367C7.81092 7.06844 8.37831 6.86469 8.60308 6.38866L8.63232 6.32653L8.65425 6.28176L8.66704 6.25526C8.89363 5.78106 8.69171 5.21641 8.21659 4.99073C7.74331 4.76414 7.175 4.96515 6.94932 5.43843L6.92374 5.49234L6.90912 5.52249L6.88537 5.57274L6.88354 5.5764C6.65877 6.05151 6.86161 6.61891 7.33581 6.84367ZM9.64193 4.51379L9.71503 4.40598L9.74335 4.36395L9.77259 4.32009C10.0229 3.94731 9.95167 3.43565 9.59442 3.15059C9.21798 2.84999 8.66886 2.91029 8.36735 3.28764L8.29426 3.379L8.2568 3.4256L8.22116 3.46946C8.20746 3.48682 8.19284 3.50692 8.17913 3.52611C7.90686 3.92904 8.01284 4.47725 8.41578 4.75043C8.82145 5.02362 9.36966 4.91672 9.64193 4.51379ZM10.9485 2.8043L11.07 2.6709L11.1047 2.63344L11.1404 2.59507C11.3852 2.32736 11.4081 1.91529 11.1778 1.62017C10.9211 1.29216 10.446 1.23369 10.118 1.49043L9.98547 1.59368L9.93888 1.63023L9.89319 1.66586C9.86121 1.69144 9.82649 1.72251 9.79817 1.75357C9.50762 2.07153 9.52955 2.56492 9.84751 2.85455C10.1655 3.14419 10.6579 3.12226 10.9485 2.8043ZM12.5429 1.24283L12.6461 1.15694L12.6863 1.12405L12.7274 1.09024C12.9321 0.920298 12.9906 0.623353 12.8526 0.385796C12.6991 0.119916 12.3601 0.0294621 12.0952 0.18296L11.9873 0.24509L11.9362 0.274328L11.8868 0.303565C11.8603 0.318184 11.832 0.338285 11.8073 0.358386C11.5634 0.561222 11.5296 0.923953 11.7333 1.16882C11.9362 1.41277 12.2989 1.44658 12.5429 1.24283ZM14.7229 24.8587L14.7795 24.8468L14.8334 24.8349L14.9376 24.8102C15.1514 24.7627 15.3076 24.5672 15.2985 24.3415C15.2885 24.0857 15.0737 23.8856 14.8179 23.8956L14.7686 23.8966L14.7165 23.8993L14.5959 23.9029C14.5676 23.9039 14.5392 23.9084 14.5109 23.9139C14.2505 23.9733 14.0861 24.2319 14.1445 24.4923C14.203 24.7536 14.4625 24.9162 14.7229 24.8587ZM12.2825 25.1008H12.3409H12.3967L12.5511 25.0999C12.8709 25.0962 13.1532 24.8651 13.2098 24.5389C13.2738 24.1707 13.0271 23.8216 12.6598 23.7577L12.6123 23.7494L12.563 23.7412L12.3921 23.712C12.3528 23.7056 12.3117 23.7029 12.2706 23.7029C11.8841 23.7065 11.5734 24.0226 11.5771 24.4091C11.5798 24.7956 11.896 25.1053 12.2825 25.1008ZM9.82284 24.6668L9.87857 24.6832L9.93157 24.6997L10.043 24.7317C10.446 24.8486 10.8781 24.6412 11.0362 24.2437C11.2034 23.8207 10.996 23.3438 10.5739 23.1766L10.5291 23.1592L10.4825 23.14L10.3619 23.0925C10.3391 23.0834 10.3153 23.0752 10.2916 23.0678C9.85025 22.9381 9.38701 23.1921 9.25819 23.6325C9.12844 24.0756 9.38153 24.538 9.82284 24.6668ZM7.50027 23.6617L7.54961 23.6928L7.59712 23.722L7.64463 23.7513C8.07406 24.0181 8.63963 23.8929 8.91464 23.4653C9.19149 23.0359 9.06723 22.4612 8.63689 22.1834L8.59668 22.1578L8.55465 22.1313L8.49161 22.0911C8.48978 22.0902 8.48796 22.0884 8.48522 22.0875C8.0503 21.8152 7.47743 21.9486 7.20607 22.3826C6.93379 22.8184 7.06536 23.3913 7.50027 23.6617ZM5.49475 22.1094L5.53769 22.1487L5.57881 22.1861L5.62084 22.2236C6.00184 22.5735 6.5939 22.5534 6.94932 22.1761C7.3084 21.7951 7.29104 21.1966 6.91095 20.8366L6.87623 20.8047L6.83968 20.7699L6.78395 20.717C6.78212 20.716 6.78029 20.7142 6.77847 20.7115C6.39289 20.357 5.79261 20.3825 5.4381 20.769C5.08359 21.1555 5.10918 21.7549 5.49475 22.1094ZM3.79531 20.2217L3.83094 20.2674L3.86475 20.3122L3.89947 20.3579C4.22017 20.7773 4.81954 20.8622 5.2444 20.5452C5.67292 20.2272 5.76154 19.6205 5.44267 19.192L5.41343 19.1527L5.38328 19.1125L5.3376 19.0504C5.33577 19.0477 5.33485 19.0467 5.33303 19.044C5.00776 18.6191 4.40016 18.5387 3.9753 18.8631C3.55136 19.1893 3.47004 19.7969 3.79531 20.2217ZM3.06162 16.6803C2.57555 16.8923 2.35352 17.4579 2.5655 17.9439L2.58834 17.9969L2.6121 18.0499L2.63494 18.1011L2.63676 18.1047C2.85148 18.5899 3.41887 18.8092 3.90404 18.5954C4.3892 18.3816 4.60939 17.8142 4.39468 17.329L4.36636 17.2642L4.34626 17.2185L4.32524 17.1728C4.11144 16.6858 3.5477 16.4674 3.06162 16.6803ZM2.44763 14.4281C1.93871 14.5588 1.63355 15.0777 1.7642 15.5857L1.77882 15.6433L1.78704 15.6753L1.80075 15.7292L1.80166 15.7328C1.93506 16.2408 2.45494 16.5451 2.96386 16.4117C3.47187 16.2783 3.77612 15.7584 3.64272 15.2486L3.62536 15.1828L3.61257 15.1344L3.60526 15.1061C3.47369 14.5981 2.95655 14.2965 2.44763 14.4281ZM1.47274 13.2029L1.47365 13.2595C1.47457 13.2814 1.47548 13.307 1.47822 13.3299C1.52847 13.8132 1.96247 14.165 2.44672 14.1156C2.93097 14.0645 3.28273 13.6305 3.23248 13.1471L3.21878 13.0174L3.2133 12.9671L3.20781 12.9141C3.1603 12.4683 2.77656 12.122 2.31972 12.133C1.83821 12.1448 1.45629 12.5441 1.46817 13.0265L1.47091 13.1435L1.47274 13.2029ZM2.32429 11.7428C2.75372 11.762 3.11736 11.4276 3.13563 10.9972L3.14294 10.8163L3.14477 10.7652L3.1466 10.7122C3.16213 10.3495 2.91452 10.0196 2.54905 9.94104C2.14064 9.85515 1.74045 10.1146 1.65365 10.5231L1.61893 10.6875L1.60614 10.7451L1.59426 10.8017C1.58604 10.8419 1.57964 10.8876 1.57781 10.9296C1.56045 11.3609 1.89394 11.7245 2.32429 11.7428ZM2.68519 9.24025C2.99767 9.2969 3.29735 9.08949 3.35309 8.77701L3.37684 8.64453L3.38598 8.59336L3.39603 8.54037C3.44354 8.27906 3.29735 8.01318 3.0397 7.9209C2.75189 7.81582 2.43393 7.96384 2.32886 8.25256L2.28683 8.36951L2.26673 8.42433L2.24754 8.47824C2.23749 8.50656 2.22835 8.54037 2.22195 8.57144C2.16439 8.88391 2.37271 9.1836 2.68519 9.24025ZM20.2031 25.4653L20.2388 25.4197L20.2726 25.3758L20.3365 25.2908C20.4699 25.1172 20.4635 24.8669 20.3119 24.6997C20.1401 24.5096 19.8468 24.495 19.6568 24.6668L19.6193 24.6997L19.5818 24.7353L19.4923 24.8157C19.4713 24.8349 19.4521 24.8559 19.4338 24.8788C19.2721 25.0916 19.3132 25.395 19.5252 25.5567C19.7372 25.7193 20.0405 25.6773 20.2031 25.4653ZM18.4891 27.2205L18.5338 27.1831L18.5768 27.1474L18.6946 27.0469C18.9368 26.8386 19.0053 26.4804 18.839 26.1945C18.6517 25.8719 18.2378 25.7632 17.9153 25.9496L17.8733 25.9743L17.8303 25.9998L17.6805 26.0866C17.6457 26.1067 17.6129 26.1314 17.5809 26.1579C17.2876 26.4092 17.252 26.8505 17.5032 27.1447C17.7545 27.4371 18.1958 27.4718 18.4891 27.2205ZM16.9833 27.3649C16.839 26.9336 16.3739 26.7006 15.9427 26.845L15.897 26.8605L15.8495 26.8761L15.727 26.9172C15.7033 26.9245 15.6804 26.9336 15.6576 26.9437C15.2364 27.1282 15.0445 27.6198 15.2291 28.041C15.4136 28.4631 15.9043 28.6541 16.3255 28.4695L16.3785 28.4467L16.4296 28.4247L16.5356 28.3781C16.9203 28.2082 17.1176 27.7705 16.9833 27.3649ZM13.8211 27.3302L13.7736 27.3365L13.7242 27.3429L13.6493 27.353C13.6466 27.353 13.6448 27.3539 13.642 27.3539C13.134 27.4252 12.7813 27.8948 12.8517 28.4019C12.9229 28.9099 13.3926 29.2635 13.8997 29.1922L13.9572 29.1849L14.0121 29.1776L14.0669 29.1703C14.5676 29.099 14.9202 28.6385 14.8563 28.1351C14.7942 27.6262 14.3291 27.2662 13.8211 27.3302ZM11.6337 27.4069L11.5862 27.4051L11.536 27.4014L11.4601 27.3969C11.4583 27.3969 11.4556 27.3969 11.4528 27.3959C10.9293 27.3722 10.4862 27.7779 10.4633 28.3014C10.4396 28.824 10.8443 29.2671 11.3679 29.2909L11.4254 29.2936L11.4812 29.2964L11.5378 29.2982C12.055 29.322 12.4953 28.9254 12.5255 28.4083C12.5538 27.8848 12.1564 27.438 11.6337 27.4069ZM9.45189 27.0889L9.40438 27.078L9.35504 27.067L9.28011 27.0487C9.27737 27.0478 9.27555 27.0478 9.27189 27.0469C8.75018 26.9309 8.23213 27.2598 8.11609 27.7815C8.00005 28.3041 8.32898 28.8222 8.85069 28.9382L8.90733 28.9501L8.96215 28.962L9.0188 28.9748C9.53412 29.089 10.0476 28.7692 10.1691 28.2539C10.2934 27.734 9.97177 27.2123 9.45189 27.0889ZM7.4491 26.337L7.38515 26.3059L7.34038 26.284L7.29469 26.2621C6.81958 26.0254 6.2467 26.2219 6.01098 26.697C5.77433 27.1712 5.96803 27.7477 6.44406 27.9843L6.49523 28.0099L6.5473 28.0355L6.59756 28.0602L6.60121 28.062C7.07724 28.2959 7.65285 28.0995 7.88676 27.6234C8.12157 27.1465 7.92513 26.5709 7.4491 26.337ZM5.5386 25.2269L5.48287 25.1876L5.44175 25.1583L5.418 25.1419C4.9904 24.8358 4.39925 24.9372 4.09499 25.3657C3.78983 25.7924 3.8885 26.3872 4.3161 26.6915L4.36453 26.7262L4.39194 26.7454L4.43762 26.7774L4.44128 26.7801C4.86979 27.0835 5.4646 26.982 5.76794 26.5535C6.07036 26.125 5.96895 25.532 5.5386 25.2269ZM3.87297 23.8792L3.77978 23.7887L3.74414 23.754L3.70577 23.7175C3.38233 23.4068 2.8661 23.3876 2.52255 23.6901C2.16165 24.0089 2.1251 24.5599 2.44398 24.9217L2.52164 25.0094L2.56093 25.0542L2.59839 25.0971C2.61301 25.1136 2.63037 25.1318 2.64681 25.1483C2.99675 25.4864 3.55501 25.4772 3.89398 25.1273C4.23205 24.7755 4.22291 24.2173 3.87297 23.8792ZM2.41657 22.2958L2.30601 22.1523L2.27495 22.1121L2.24297 22.0701C2.02186 21.7823 1.61984 21.6882 1.29 21.8636C0.921792 22.0601 0.781999 22.5169 0.97844 22.8851L1.05702 23.0331L1.08443 23.0852L1.11184 23.1364C1.13102 23.1729 1.15661 23.2113 1.18128 23.2451C1.4435 23.5859 1.93323 23.6499 2.27403 23.3876C2.61484 23.1263 2.67879 22.6366 2.41657 22.2958ZM1.15569 20.4538L1.08899 20.3369L1.06341 20.2921L1.03691 20.2455C0.905345 20.0143 0.622105 19.9056 0.365362 19.9997C0.0775534 20.1039 -0.071376 20.4227 0.0336969 20.7106L0.0766397 20.8275L0.0967407 20.8823L0.116842 20.9362C0.126892 20.9646 0.141511 20.9965 0.157043 21.024C0.31511 21.2999 0.665962 21.3958 0.941892 21.2377C1.21782 21.0815 1.31376 20.7297 1.15569 20.4538ZM24.7907 22.4082L24.7889 22.3506L24.7861 22.2949L24.7807 22.188C24.7715 21.9696 24.6061 21.7814 24.3814 21.7503C24.1274 21.7156 23.8935 21.8929 23.8588 22.1459L23.8514 22.1953L23.8451 22.2464L23.8277 22.3652C23.824 22.3936 23.8231 22.4219 23.8231 22.4511C23.8359 22.7179 24.0625 22.9244 24.3293 22.9116C24.597 22.9016 24.8026 22.675 24.7907 22.4082ZM24.6061 24.8532L24.6162 24.7956L24.6262 24.7408L24.6518 24.5882C24.703 24.2721 24.5257 23.955 24.2142 23.8426C23.8633 23.7156 23.4768 23.8984 23.3489 24.2492L23.3325 24.2949L23.316 24.3424L23.2576 24.5051C23.2438 24.5425 23.2347 24.5827 23.2274 24.6238C23.1644 25.0048 23.4211 25.3657 23.8021 25.4288C24.1822 25.4927 24.5431 25.2351 24.6061 24.8532ZM23.7509 27.2004L23.7765 27.1483L23.8021 27.099L23.8533 26.9948C24.0387 26.6184 23.909 26.1561 23.5454 25.9322C23.158 25.6947 22.6518 25.8153 22.4142 26.2027L22.3896 26.2438L22.3631 26.2858L22.2955 26.3964C22.2827 26.4174 22.2699 26.4384 22.2598 26.4612C22.0561 26.8733 22.2251 27.3731 22.6363 27.5768C23.0483 27.7815 23.5472 27.6134 23.7509 27.2004ZM22.3585 29.3128L22.3978 29.2699L22.4352 29.2288L22.4727 29.1877C22.8099 28.8112 22.7852 28.232 22.4115 27.8875C22.036 27.5403 21.4494 27.5631 21.1013 27.9387L21.0693 27.9734L21.0355 28.0099L20.9843 28.0657C20.9825 28.0675 20.9807 28.0693 20.9788 28.0711C20.6353 28.4521 20.6673 29.0396 21.0474 29.3823C21.4293 29.7249 22.0159 29.6938 22.3585 29.3128ZM20.4809 31.0187L20.5266 30.983L20.5704 30.9492L20.6152 30.9145C21.0264 30.6002 21.1095 30.0136 20.7998 29.5979C20.4864 29.1785 19.8943 29.0917 19.474 29.4033L19.4356 29.4325L19.3945 29.4627L19.3333 29.5084C19.3315 29.5102 19.3297 29.5111 19.3269 29.5129C18.9112 29.8309 18.8317 30.4266 19.1515 30.8423C19.4704 31.2581 20.0652 31.3366 20.4809 31.0187ZM17.5991 30.5627L17.5553 30.5847L17.5105 30.6075L17.4411 30.6422C17.4383 30.6431 17.4365 30.645 17.4338 30.6459C16.9596 30.8926 16.7741 31.4764 17.0199 31.9515C17.2675 32.4266 17.8513 32.6112 18.3264 32.3654L18.3776 32.338L18.4269 32.3124L18.4781 32.2859C18.9468 32.0429 19.1341 31.4673 18.8957 30.994C18.6581 30.5152 18.0761 30.3224 17.5991 30.5627ZM15.5808 31.2736L15.5123 31.2909L15.4639 31.3028L15.4155 31.3156C14.8992 31.4399 14.5868 31.9579 14.7119 32.4742C14.8362 32.9895 15.3552 33.3065 15.8705 33.1823L15.9262 33.1686L15.9819 33.1548L16.0358 33.1421L16.0404 33.1411C16.5557 33.0141 16.87 32.4933 16.7439 31.978C16.6169 31.4609 16.0962 31.1466 15.5808 31.2736ZM13.4045 31.6509L13.3359 31.6573L13.2857 31.661L13.2564 31.6637C12.732 31.7048 12.3446 32.1617 12.3866 32.6852C12.4268 33.2088 12.8846 33.5998 13.4081 33.5587L13.4675 33.5541L13.5004 33.5514L13.5561 33.5468H13.5607C14.0842 33.5039 14.4744 33.0443 14.4314 32.5208C14.3885 31.9972 13.9289 31.608 13.4045 31.6509ZM11.2619 31.6893L11.1321 31.6802L11.0819 31.6765L11.0289 31.6729C10.5812 31.6427 10.1737 31.9598 10.1052 32.412C10.0339 32.889 10.3601 33.333 10.837 33.4061L10.9531 33.4235L11.0115 33.4326L11.0673 33.4408C11.0883 33.4436 11.1139 33.4472 11.1367 33.4481C11.6219 33.4819 12.044 33.1165 12.0787 32.6304C12.1134 32.1452 11.747 31.724 11.2619 31.6893ZM9.12753 31.4125L8.95119 31.3741L8.90094 31.3631L8.84977 31.3522C8.49527 31.2736 8.12705 31.46 7.98726 31.8072C7.83102 32.1937 8.01833 32.6341 8.40481 32.7903L8.56105 32.8533L8.61587 32.8753L8.66978 32.8972C8.70815 32.9127 8.75201 32.9264 8.79312 32.9356C9.21342 33.0278 9.63005 32.7629 9.72142 32.3417C9.8137 31.9205 9.54782 31.5057 9.12753 31.4125ZM6.97856 30.8122L6.85247 30.7656L6.80405 30.7473L6.7538 30.729C6.50436 30.6368 6.21747 30.7345 6.08133 30.973C5.92783 31.238 6.01829 31.5778 6.28417 31.7304L6.39198 31.7926L6.44315 31.8218L6.49248 31.8501C6.51898 31.8647 6.55005 31.8803 6.57928 31.8912C6.87714 32.0009 7.20789 31.8483 7.31845 31.5504C7.429 31.2526 7.27642 30.9227 6.97856 30.8122ZM25.4842 17.5584L25.5125 17.6022L25.5765 17.7046C25.592 17.7283 25.6094 17.7512 25.6285 17.7731C25.8104 17.9695 26.1165 17.9814 26.312 17.8014C26.5093 17.6196 26.5212 17.3144 26.3403 17.118L26.3019 17.075L26.2645 17.0339L26.1914 16.9563C26.0434 16.7945 25.7967 16.7571 25.6048 16.8777C25.3883 17.0138 25.3225 17.2998 25.4586 17.5173L25.4842 17.5584ZM26.4353 19.4999L26.4527 19.5465L26.5121 19.7092C26.5258 19.7466 26.5441 19.7832 26.5651 19.8197C26.7615 20.1523 27.19 20.2638 27.5235 20.0673C27.857 19.8709 27.9666 19.4424 27.7702 19.1089L27.741 19.0586L27.7126 19.0102L27.6341 18.8768C27.4705 18.6018 27.1297 18.473 26.8191 18.5872C26.4682 18.716 26.2901 19.1043 26.4171 19.4543L26.4353 19.4999ZM26.9726 21.6489L26.9918 21.7768C26.9954 21.8015 27 21.8252 27.0055 21.8499C27.1142 22.2967 27.5646 22.5708 28.0114 22.463C28.4591 22.3543 28.7332 21.9038 28.6245 21.457L28.6108 21.4013L28.598 21.3474L28.5706 21.235C28.471 20.8275 28.0745 20.5561 27.6514 20.6192C27.2019 20.6859 26.8922 21.1044 26.9589 21.5539L26.9662 21.6014L26.9726 21.6489ZM28.0388 22.844C27.5281 22.8193 27.0932 23.214 27.0676 23.7257L27.0658 23.7732L27.063 23.8225L27.0594 23.8975C27.0594 23.9002 27.0594 23.902 27.0585 23.9048C27.0402 24.4173 27.4422 24.8468 27.9539 24.8651C28.4664 24.8824 28.8968 24.4822 28.9141 23.9696L28.9169 23.9121L28.9187 23.8564L28.9205 23.8006C28.9379 23.2954 28.5468 22.8678 28.0388 22.844ZM27.9045 25.1894C27.3947 25.0688 26.8849 25.3831 26.7643 25.8929L26.7542 25.9395L26.7423 25.9889L26.724 26.0629C26.724 26.0647 26.7231 26.0674 26.7222 26.0702C26.608 26.5818 26.9305 27.088 27.4422 27.2013C27.9529 27.3155 28.46 26.9939 28.5742 26.4823L28.587 26.4256L28.5989 26.3708L28.6108 26.316C28.7232 25.8116 28.4089 25.3091 27.9045 25.1894ZM27.3435 27.4818C26.8538 27.2698 26.2846 27.4955 26.0726 27.9862L26.0534 28.0309L26.0333 28.0775L26.0022 28.1479C26.0004 28.1506 26.0004 28.1525 25.9986 28.1552C25.7939 28.6486 26.0278 29.216 26.5212 29.4216C27.0164 29.6262 27.5829 29.3923 27.7876 28.8989L27.8095 28.845L27.8305 28.793L27.8524 28.74C28.0562 28.2521 27.8296 27.6911 27.3435 27.4818ZM24.9835 29.8281L24.9415 29.8857L24.9113 29.9259L24.8821 29.967C24.5669 30.3937 24.6601 30.9922 25.0877 31.3065C25.5143 31.6217 26.1146 31.5312 26.4298 31.1036L26.4636 31.058L26.4975 31.0114L26.5303 30.9666L26.5331 30.9629C26.8456 30.5344 26.7524 29.9332 26.3239 29.6207C25.8972 29.3055 25.2969 29.3996 24.9835 29.8281ZM23.5591 31.5166L23.5106 31.565L23.475 31.5998L23.454 31.6208C23.0785 31.989 23.0757 32.5884 23.4449 32.963C23.8122 33.3385 24.4143 33.344 24.7889 32.9758L24.8318 32.9337L24.8556 32.91L24.8949 32.8707L24.8976 32.868C25.2704 32.4979 25.275 31.8958 24.9049 31.5221C24.5358 31.1493 23.9337 31.1466 23.5591 31.5166ZM21.9419 32.9228L21.8368 32.9995L21.7966 33.0288L21.7536 33.0598C21.3909 33.3239 21.2831 33.8291 21.5207 34.2202C21.7719 34.6314 22.3082 34.762 22.7203 34.5107L22.8208 34.4495L22.8711 34.4185L22.9195 34.3892C22.9378 34.3783 22.9597 34.3636 22.978 34.3499C23.3718 34.064 23.4595 33.513 23.1744 33.1183C22.8875 32.7254 22.3357 32.6377 21.9419 32.9228ZM20.13 34.0831L19.9701 34.1672L19.9245 34.191L19.8779 34.2156C19.5562 34.3837 19.3936 34.7629 19.5087 35.1183C19.6385 35.5149 20.0633 35.7323 20.4608 35.6026L20.6207 35.5505L20.6773 35.5322L20.7322 35.514C20.7714 35.5012 20.8144 35.4829 20.8509 35.4637C21.2319 35.2645 21.3809 34.7931 21.1808 34.4121C20.9825 34.0311 20.511 33.883 20.13 34.0831ZM18.0971 35.0041L17.971 35.0498L17.9217 35.0672L17.8714 35.0855C17.6211 35.175 17.4648 35.4345 17.5133 35.704C17.5663 36.0064 17.8541 36.2074 18.1556 36.1535L18.278 36.1316L18.3356 36.1216L18.3922 36.1115C18.4215 36.106 18.4553 36.0978 18.4854 36.0868C18.7842 35.979 18.9395 35.6501 18.8326 35.3513C18.7257 35.0526 18.3968 34.8972 18.0971 35.0041ZM24.1255 12.0672L24.0689 12.0589L24.0141 12.0516L23.9081 12.0388C23.6906 12.0096 23.4778 12.1403 23.4083 12.3559C23.3297 12.5998 23.464 12.8612 23.7071 12.9397L23.7546 12.9553L23.8039 12.9708L23.9181 13.0083C23.9446 13.0165 23.973 13.0229 24.0013 13.0274C24.2663 13.0612 24.5093 12.8739 24.5431 12.609C24.5778 12.344 24.3905 12.1019 24.1255 12.0672ZM25.6889 13.8077L25.7309 13.8315L25.7747 13.8561L25.9246 13.942C25.9593 13.9621 25.9968 13.9786 26.036 13.9923C26.4006 14.1211 26.7999 13.9302 26.9287 13.5656C27.0575 13.201 26.8666 12.8018 26.502 12.6729L26.4472 12.6528L26.3951 12.6336L26.2498 12.5825C25.9474 12.4765 25.6039 12.5971 25.4394 12.884C25.253 13.2093 25.3654 13.6213 25.6889 13.8077ZM28.6656 13.9238L28.619 13.89L28.5742 13.8561L28.4801 13.7876C28.1421 13.54 27.6642 13.5866 27.3801 13.9064C27.0786 14.2472 27.1096 14.7662 27.4495 15.0677L27.4851 15.0997L27.5217 15.1335L27.6185 15.2194C27.6368 15.2358 27.656 15.2513 27.6761 15.266C28.0461 15.5382 28.5678 15.4587 28.8401 15.0887C29.1151 14.7168 29.0357 14.196 28.6656 13.9238ZM30.3431 16.9654C30.747 16.6493 30.8192 16.0663 30.503 15.6625L30.4674 15.6168L30.4336 15.5729L30.3998 15.5291C30.0873 15.1316 29.5126 15.0558 29.1087 15.3628C28.7012 15.6716 28.6218 16.2536 28.9315 16.6621L28.9607 16.6995L28.9909 16.7388L29.0366 16.7982C29.0384 16.8 29.0393 16.8018 29.0411 16.8037C29.3554 17.2093 29.9393 17.2797 30.3431 16.9654ZM30.0919 18.5186L30.1138 18.5607L30.1357 18.6064L30.1695 18.6749C30.1704 18.6767 30.1723 18.6785 30.1732 18.6822C30.4144 19.1473 30.9873 19.3282 31.4523 19.086C31.9174 18.8448 32.0983 18.2729 31.8571 17.8078L31.8306 17.7566L31.805 17.7073L31.7785 17.657C31.54 17.1975 30.9772 17.0138 30.514 17.2468C30.0453 17.4816 29.857 18.0499 30.0919 18.5186ZM30.9215 20.6128L30.9361 20.6612L30.958 20.7352C30.9589 20.738 30.9599 20.7398 30.9599 20.7434C31.1198 21.2533 31.6634 21.5374 32.1741 21.3775C32.6849 21.2167 32.969 20.6731 32.8082 20.1633L32.7909 20.1084L32.7744 20.0545L32.7571 19.9997C32.599 19.4963 32.0645 19.2112 31.5574 19.3638C31.0457 19.5164 30.7552 20.0555 30.9078 20.5671L30.9215 20.6128ZM33.1774 22.6083L33.1737 22.5525V22.548C33.1381 22.0189 32.6803 21.6178 32.1504 21.6535C31.6214 21.6891 31.2203 22.1469 31.2559 22.6759L31.2605 22.7462L31.2632 22.7965L31.2669 22.8467C31.2997 23.3767 31.7557 23.775 32.2856 23.7412C32.8146 23.7083 33.2166 23.2524 33.1837 22.7234L33.1801 22.6658L33.1774 22.6083ZM32.2865 24.0254C31.763 23.977 31.2997 24.3616 31.2513 24.8861L31.2449 24.9546L31.2404 25.0048L31.2376 25.0341C31.1864 25.5576 31.5702 26.0181 32.0928 26.0684C32.6154 26.1195 33.0805 25.7367 33.1308 25.2141L33.1372 25.1547L33.1399 25.1218L33.1454 25.0661L33.1463 25.0615C33.1947 24.538 32.8101 24.0738 32.2865 24.0254ZM31.9868 26.3607C31.5145 26.2429 31.0348 26.5307 30.9169 27.0021L30.8858 27.1282L30.874 27.1767L30.8612 27.2278C30.7534 27.6636 30.9955 28.1196 31.4286 28.2658C31.8854 28.4193 32.3806 28.1744 32.5341 27.7176L32.5716 27.6061L32.5908 27.5494L32.609 27.4955C32.6154 27.4754 32.6237 27.4508 32.6291 27.4279C32.7461 26.9592 32.4592 26.4795 31.9868 26.3607ZM31.2906 28.6331C30.8932 28.4686 30.4372 28.6577 30.2737 29.0561L30.2052 29.2233L30.186 29.2708L30.1659 29.3192C30.027 29.6545 30.1467 30.0493 30.4637 30.2484C30.8173 30.4686 31.2833 30.3617 31.5044 30.0072L31.5939 29.8647L31.625 29.8144L31.6552 29.7651C31.6771 29.7304 31.6981 29.6893 31.7146 29.65C31.8781 29.2525 31.689 28.7966 31.2906 28.6331ZM30.0955 30.8615C29.8214 30.7016 29.4687 30.7939 29.3088 31.0689L29.2412 31.185L29.2147 31.2297L29.1873 31.2754C29.053 31.5047 29.0996 31.8044 29.3107 31.9799C29.5455 32.1772 29.8954 32.1471 30.0919 31.9113L30.1723 31.8154L30.2097 31.7706L30.2463 31.7268C30.2655 31.7039 30.2856 31.6756 30.302 31.6482C30.4628 31.3732 30.3705 31.0214 30.0955 30.8615ZM19.4247 10.5605L19.4713 10.5422L19.5188 10.5221L19.6303 10.4774C19.6558 10.4664 19.6814 10.4527 19.7061 10.4381C19.9309 10.2928 19.9966 9.99403 19.8523 9.76927C19.7079 9.54359 19.4091 9.47872 19.1835 9.62216L19.135 9.65323L19.0884 9.68338L18.9989 9.74186C18.8143 9.85972 18.7339 10.0964 18.8198 10.3065C18.9167 10.5432 19.1871 10.6574 19.4247 10.5605ZM21.4996 9.952L21.5472 9.94378L21.5965 9.93464L21.7673 9.90449C21.8066 9.89718 21.8459 9.88622 21.8852 9.8716C22.247 9.73546 22.4307 9.33344 22.2955 8.97071C22.1602 8.6089 21.7564 8.42525 21.3946 8.56138L21.3397 8.58149L21.2877 8.60067L21.1433 8.65458C20.8436 8.76788 20.6581 9.08127 20.7166 9.40654C20.7815 9.77292 21.1323 10.0169 21.4996 9.952ZM23.8542 8.12647L23.7966 8.13013L23.7409 8.13287L23.6249 8.14018C23.2064 8.16759 22.8711 8.51113 22.8592 8.93782C22.8473 9.39283 23.2046 9.77018 23.6587 9.78297L23.7062 9.78389L23.7564 9.78571L23.8853 9.78845C23.9099 9.78937 23.9346 9.78937 23.9593 9.78754C24.4179 9.7583 24.766 9.36177 24.7377 8.9031C24.7085 8.44535 24.3129 8.09724 23.8542 8.12647ZM26.3239 8.26444L26.269 8.25256L26.2142 8.24068C25.7199 8.13652 25.2302 8.44809 25.1187 8.9433C25.0054 9.44217 25.3188 9.93921 25.8177 10.0525L25.8643 10.0626L25.9127 10.0735L25.9858 10.09C25.9885 10.0909 25.9904 10.0909 25.9931 10.0918C26.4947 10.1987 26.9872 9.87799 27.0941 9.3773C27.201 8.87569 26.8803 8.3823 26.3796 8.27632L26.3239 8.26444ZM28.7424 9.02827L28.6912 9.00726L28.6391 8.98624C28.1613 8.78706 27.6121 9.00909 27.4066 9.48511C27.1992 9.96662 27.4203 10.5221 27.9009 10.7305L27.9447 10.7487L27.9913 10.7688L28.0617 10.799C28.0635 10.7999 28.0662 10.7999 28.069 10.8017C28.5523 11.0027 29.1078 10.7734 29.3079 10.2891C29.5089 9.80581 29.2805 9.25121 28.7963 9.0502L28.7424 9.02827ZM31.0384 10.2426L30.9891 10.2115L30.9416 10.1813L30.8932 10.1503C30.4482 9.86612 29.8561 9.99129 29.5656 10.4344C29.2714 10.8803 29.3956 11.4797 29.8415 11.7739L29.8826 11.8004L29.9247 11.8278L29.9886 11.8707C29.9914 11.8726 29.9932 11.8735 29.995 11.8753C30.4455 12.1631 31.0448 12.0315 31.3326 11.5811C31.6214 11.1297 31.4889 10.5304 31.0384 10.2426ZM32.9736 11.9621L32.9343 11.9201L32.8941 11.8789L32.8557 11.8387L32.853 11.8351C32.4857 11.4523 31.8772 11.4404 31.4944 11.8077C31.1115 12.175 31.0997 12.7835 31.4669 13.1654L31.5163 13.2166L31.551 13.2531L31.5857 13.2888C31.9512 13.6734 32.557 13.6853 32.9407 13.3189C33.3245 12.9543 33.3391 12.3468 32.9736 11.9621ZM34.5323 13.9046L34.4985 13.8552L34.4793 13.8278L34.4474 13.7821L34.4446 13.7785C34.1459 13.3463 33.5529 13.2385 33.1207 13.5373C32.6885 13.836 32.5816 14.429 32.8813 14.8621L32.9206 14.9178L32.9489 14.959L32.9654 14.9827C33.2632 15.4167 33.8526 15.5227 34.2856 15.2248C34.7196 14.9288 34.8293 14.3367 34.5323 13.9046ZM35.1911 17.3391C35.6397 17.1627 35.8617 16.6575 35.6863 16.208L35.6434 16.0983L35.6214 16.0435L35.6004 15.9905C35.5922 15.9704 35.5822 15.9466 35.5721 15.9265C35.3592 15.4889 34.8311 15.3071 34.3935 15.52C33.9558 15.7338 33.774 16.2619 33.9869 16.6995L34.0435 16.8165L34.0654 16.8612L34.0883 16.9087C34.2856 17.3108 34.7653 17.5054 35.1911 17.3391ZM36.367 18.6228L36.3432 18.4565L36.335 18.398L36.3268 18.3405C36.3204 18.2994 36.3113 18.2546 36.2985 18.2144C36.1687 17.8041 35.7302 17.5766 35.3199 17.7073C34.9097 17.8361 34.6822 18.2747 34.8128 18.6849L34.8677 18.8576L34.8832 18.906L34.8987 18.9563C35.0084 19.3026 35.3537 19.5283 35.7238 19.4762C36.1377 19.4177 36.4255 19.0358 36.367 18.6228ZM36.5104 20.8641V20.8056V20.748C36.5104 20.7179 36.5077 20.6831 36.5022 20.6521C36.4483 20.3387 36.1514 20.1285 35.838 20.1825C35.5246 20.2364 35.3144 20.5333 35.3684 20.8467L35.3912 20.9792L35.4003 21.0303L35.4095 21.0833C35.4542 21.3456 35.6827 21.5447 35.9568 21.5438C36.2638 21.5438 36.5114 21.2962 36.5114 20.9892L36.5104 20.8641ZM14.6142 11.4906L14.6379 11.4468L14.6617 11.4011L14.7183 11.2951C14.7311 11.2704 14.7421 11.243 14.7512 11.2156C14.8298 10.9598 14.6882 10.6893 14.4333 10.6099C14.1774 10.5294 13.907 10.672 13.8266 10.9269L13.8092 10.9817L13.7928 11.0347L13.7617 11.137C13.6959 11.3463 13.7873 11.5783 13.9874 11.6843C14.214 11.804 14.4945 11.7172 14.6142 11.4906ZM15.812 9.68978L15.8431 9.65232L15.875 9.61303L15.9865 9.47963C16.0121 9.44857 16.0349 9.41476 16.0559 9.37913C16.246 9.04198 16.1281 8.61621 15.791 8.42525C15.4538 8.2352 15.0281 8.35398 14.838 8.69021L14.8088 8.74047L14.7805 8.78889L14.7046 8.9232C14.5484 9.20187 14.6069 9.56186 14.8609 9.77384C15.1468 10.015 15.5726 9.97576 15.812 9.68978ZM17.3589 8.17307L17.3963 8.14383L17.4356 8.11368L17.537 8.03328C17.5562 8.01866 17.5754 8.00221 17.5928 7.98485C17.9253 7.66689 17.9372 7.1397 17.6211 6.80712C17.3031 6.47363 16.7768 6.46175 16.4433 6.7788L16.4013 6.819L16.3611 6.85738L16.2771 6.93778C15.9746 7.22833 15.9372 7.70618 16.2031 8.0415C16.4863 8.39692 17.0025 8.45631 17.3589 8.17307ZM18.4233 5.29681L18.3739 5.3224L18.3246 5.34798C17.8787 5.58645 17.7042 6.13923 17.9372 6.59058C18.1711 7.04559 18.7303 7.22467 19.1862 6.99077L19.2282 6.96884L19.2721 6.946L19.3388 6.91128C19.3406 6.91037 19.3434 6.90946 19.3452 6.90763C19.7984 6.66733 19.9692 6.10451 19.7289 5.65223C19.4877 5.19905 18.9258 5.02728 18.4735 5.26849L18.4233 5.29681ZM20.7669 4.3274L20.7139 4.34385L20.66 4.36121C20.1657 4.51562 19.8879 5.03824 20.0368 5.53528C20.1876 6.03689 20.7148 6.32105 21.2164 6.1712L21.2621 6.15659L21.3105 6.14288L21.3836 6.12095C21.3854 6.12004 21.3882 6.11912 21.3909 6.11912C21.8907 5.96197 22.1685 5.43021 22.0104 4.92952C21.8541 4.42973 21.3215 4.15198 20.8217 4.30913L20.7669 4.3274ZM22.3018 4.87561C22.3631 5.40554 22.8437 5.78563 23.3745 5.72442L23.4229 5.71893L23.4732 5.71254L23.5499 5.7034C23.5527 5.7034 23.5545 5.70249 23.5582 5.70249C24.0881 5.63305 24.4627 5.14697 24.3933 4.61704C24.3229 4.08619 23.8368 3.7125 23.3069 3.78194L23.2493 3.78925L23.1936 3.79656L23.136 3.80386C22.6125 3.8733 22.2397 4.34933 22.3018 4.87561ZM24.6619 4.6883C24.6043 5.2155 24.9862 5.6897 25.5134 5.74634L25.5838 5.75365L25.6331 5.75914L25.6834 5.7637C26.2106 5.82309 26.682 5.443 26.7405 4.91581C26.8008 4.38862 26.4207 3.91351 25.8935 3.85412L25.8369 3.84772L25.7793 3.84133L25.7236 3.83493L25.719 3.83402C25.1927 3.7792 24.7185 4.1602 24.6619 4.6883ZM27.688 6.13557L27.7538 6.15293L27.8022 6.16664L27.8305 6.17394C28.3376 6.31465 28.8575 6.01771 28.9973 5.51153C29.138 5.00535 28.842 4.48181 28.3367 4.34111L28.2791 4.32466L28.2471 4.31552L28.1932 4.30091L28.1896 4.29999C27.6825 4.16203 27.159 4.45989 27.0201 4.96698C26.8812 5.47315 27.18 5.99669 27.688 6.13557ZM29.7145 6.83271L29.8333 6.8857L29.879 6.9058L29.9274 6.92773C30.3376 7.10955 30.8292 6.95057 31.0485 6.54947C31.2787 6.12643 31.1243 5.5965 30.7004 5.36534L30.5971 5.30869L30.545 5.28037L30.4957 5.25296C30.4765 5.24291 30.4537 5.23103 30.4327 5.22189C29.9886 5.02362 29.4669 5.22372 29.2677 5.66777C29.0704 6.11273 29.2705 6.63444 29.7145 6.83271ZM31.625 7.82222L31.7776 7.91907L31.8205 7.94648L31.8653 7.9748C32.1714 8.16942 32.5807 8.12008 32.832 7.84232C33.1107 7.53167 33.086 7.05473 32.7753 6.77606L32.6502 6.66368L32.6063 6.62439L32.5634 6.58601C32.5323 6.5586 32.4958 6.53028 32.461 6.50835C32.0974 6.2781 31.6159 6.385 31.3856 6.74865C31.1536 7.10955 31.2623 7.59197 31.625 7.82222ZM33.5419 9.20827L33.5812 9.24207L33.6223 9.27679C33.8251 9.44857 34.1276 9.45496 34.3377 9.27771C34.5725 9.08127 34.6036 8.73133 34.4062 8.49651L34.3258 8.40149L34.2884 8.35672L34.2518 8.31286C34.2327 8.29002 34.208 8.26535 34.1842 8.24434C33.9421 8.03876 33.5785 8.06891 33.3738 8.31195C33.1691 8.55499 33.1984 8.91681 33.4414 9.12238L33.5419 9.20827ZM10.583 15.4222L10.604 15.4734L10.6461 15.5711C10.7292 15.774 10.9494 15.8936 11.1705 15.8452C11.4209 15.7913 11.5798 15.5446 11.5259 15.2943L11.5159 15.2459L11.504 15.1956L11.4793 15.0777C11.4729 15.0503 11.4638 15.0229 11.4538 14.9955C11.3505 14.7488 11.0664 14.6328 10.8206 14.7351C10.573 14.8384 10.4578 15.1216 10.5602 15.3683L10.583 15.4222ZM11.2875 13.1453V13.0969L11.2866 13.0466V12.873C11.2866 12.8328 11.282 12.7926 11.2747 12.7515C11.2034 12.3714 10.8388 12.1211 10.4588 12.1914C10.0787 12.2618 9.82832 12.6273 9.89959 13.0073L9.90964 13.0649L9.91969 13.1197L9.94801 13.2714C10.0074 13.5857 10.2833 13.8233 10.6141 13.8223C10.986 13.8223 11.2875 13.519 11.2875 13.1453ZM9.89867 10.5103L9.89228 10.5678L9.88588 10.6226L9.87309 10.7378C9.82741 11.1544 10.107 11.5445 10.5264 11.6304C10.9722 11.7218 11.4062 11.4349 11.4967 10.9899L11.5058 10.9433L11.5168 10.8949L11.5424 10.7679C11.5479 10.7442 11.5515 10.7195 11.5543 10.6948C11.6054 10.238 11.2756 9.82592 10.8187 9.77475C10.361 9.72358 9.94984 10.0525 9.89867 10.5103ZM12.1372 8.91041L12.1555 8.86655L12.1746 8.82087L12.2039 8.75143C12.2048 8.7496 12.2057 8.74686 12.2066 8.74503C12.3994 8.26992 12.1682 7.72902 11.6941 7.53624C11.218 7.34437 10.6771 7.5737 10.4862 8.04881L10.4642 8.10272L10.4432 8.15388L10.4222 8.20505C10.234 8.67377 10.456 9.2101 10.9238 9.40654C11.3953 9.6048 11.9389 9.38278 12.1372 8.91041ZM11.8521 7.24752C12.2898 7.53532 12.8764 7.41381 13.1642 6.97707L13.1897 6.93687L13.2181 6.89484L13.2601 6.83088C13.261 6.82905 13.2619 6.82722 13.2647 6.82448C13.547 6.38318 13.4172 5.7966 12.975 5.51518C12.5337 5.23286 11.9481 5.3626 11.6657 5.80391L11.6347 5.85233L11.6045 5.89893L11.5744 5.94644C11.2966 6.38318 11.419 6.96336 11.8521 7.24752ZM13.1632 5.28585C13.5506 5.65315 14.1637 5.63487 14.5301 5.24656L14.5639 5.21093L14.5986 5.17438L14.6516 5.11865C14.6544 5.11682 14.6553 5.11499 14.6571 5.11317C15.0189 4.71937 14.9924 4.10629 14.5995 3.74448C14.2048 3.38266 13.5918 3.40916 13.2309 3.80295L13.1916 3.84589L13.1541 3.88701L13.1148 3.92995C12.7576 4.31827 12.7777 4.92312 13.1632 5.28585ZM16.1839 3.88884L16.2423 3.84955L16.2844 3.82214L16.3255 3.79381C16.7677 3.50052 16.8847 2.90663 16.5904 2.46441C16.2981 2.02219 15.7014 1.9025 15.2592 2.19579L15.2117 2.22777L15.1642 2.25975L15.1176 2.29081L15.1139 2.29264C14.6736 2.58776 14.5557 3.1853 14.8508 3.6257C15.1459 4.06609 15.7426 4.18395 16.1839 3.88884ZM18.0998 2.78877L18.162 2.75953L18.2077 2.73852L18.2342 2.72573C18.7129 2.50827 18.9203 1.94636 18.702 1.46759C18.4845 0.989737 17.9208 0.778678 17.4429 0.996133L17.3881 1.0208L17.3579 1.03451L17.3077 1.05735L17.304 1.05918C16.8271 1.27846 16.6169 1.84403 16.8371 2.32097C17.0564 2.79973 17.6211 3.00897 18.0998 2.78877ZM20.0999 2.02037L20.2251 1.98473L20.2735 1.97103L20.3246 1.95641C20.7559 1.83215 21.03 1.39358 20.9405 0.945881C20.8445 0.473509 20.3859 0.167427 19.9126 0.26245L19.7975 0.285292L19.739 0.29717L19.6832 0.308134C19.6622 0.312702 19.6376 0.318184 19.6147 0.32458C19.1469 0.457977 18.8756 0.946794 19.009 1.4146C19.1442 1.8824 19.6321 2.15376 20.0999 2.02037ZM22.1995 1.55074L22.3786 1.52698L22.4298 1.52058L22.4818 1.51327C22.8418 1.46576 23.1242 1.16516 23.137 0.790556C23.1507 0.373919 22.8254 0.02398 22.4078 0.00936113L22.2397 0.00387907L22.1803 0.00205171L22.1228 0.000224357C22.0817 -0.000689321 22.0351 0.00113803 21.9939 0.0066201C21.5673 0.0632681 21.2667 0.455236 21.3242 0.881923C21.3809 1.3077 21.7737 1.60738 22.1995 1.55074ZM24.4252 1.37988L24.5595 1.38079H24.6116H24.6646C24.9305 1.38171 25.1662 1.19166 25.2128 0.922125C25.2667 0.620612 25.0648 0.332803 24.7633 0.27981L24.6409 0.258795L24.5833 0.248745L24.5267 0.238694C24.4974 0.233212 24.4618 0.230471 24.4307 0.229557C24.1128 0.228644 23.8542 0.484474 23.8533 0.802433C23.8505 1.11948 24.1073 1.37805 24.4252 1.37988Z" fill="white"/>
</svg>
